<svg width="221" height="28" viewBox="0 0 221 28" fill="none" xmlns="http://www.w3.org/2000/svg">
<path fill-rule="evenodd" clip-rule="evenodd" d="M23.6553 7.38547L23.674 7.41316C25.4893 9.40723 26.5935 12.0475 26.5935 14.9463C26.5935 18.0113 25.3583 20.79 23.3465 22.8302L20.5113 20.1438C20.6329 20.0792 20.7545 20.0145 20.8668 19.9499L20.8762 19.9407C22.757 18.8144 24.0202 16.7742 24.0202 14.457C24.0202 12.426 23.0471 10.6074 21.5406 9.43492L21.5218 9.41646C20.4364 8.57637 19.0702 8.06862 17.5918 8.05015C19.0702 8.06862 20.427 8.57637 21.5125 9.41646L18.6679 12.1121H18.6772L18.6959 12.1214C19.5662 12.546 20.1744 13.4415 20.1744 14.4478C20.1744 15.8787 18.9673 17.0511 17.5356 17.0511H17.2643H11.3504L22.7664 27.8523L22.7757 27.8431C23.9735 27.1507 25.0589 26.3106 26.0227 25.3321C28.6708 22.6456 30.299 18.9714 30.299 14.9278C30.299 11.0597 28.8018 7.52394 26.3596 4.87442L26.3409 4.85596H26.3315L23.6553 7.38547Z" fill="#9C9D9D"/>
<path fill-rule="evenodd" clip-rule="evenodd" d="M7.14899 23.0332C5.01552 20.9838 3.69614 18.1219 3.69614 14.9462C3.69614 13.4137 4.00493 11.9551 4.56637 10.6257L4.57573 10.598C5.16524 9.20402 6.02612 7.95773 7.10221 6.9053L7.12092 6.88684C9.18889 4.88354 12.0148 3.65572 15.1401 3.64648C12.0148 3.64648 9.18889 4.88354 7.12092 6.88684L7.10221 6.89607L4.43537 4.3758C3.37799 5.41899 2.47969 6.61912 1.76853 7.93003L1.74982 7.95773C0.636298 10.0441 0 12.4167 0 14.9462C0 19.1005 1.71239 22.8486 4.48216 25.5627L7.14899 23.0332Z" fill="#134094"/>
<path fill-rule="evenodd" clip-rule="evenodd" d="M15.1402 3.64655C18.5181 3.64655 21.5593 5.09595 23.6553 7.39466L26.3222 4.86515C23.5524 1.87405 19.5662 0 15.1402 0C10.9668 0 7.19579 1.66172 4.45409 4.3574L4.42602 4.37587L7.09286 6.90537L7.11157 6.88691C9.17954 4.88361 12.0148 3.64655 15.1402 3.64655ZM8.30931 8.05012H8.34674H17.5263C19.0328 8.05012 20.4177 8.55786 21.5218 9.41642L18.6679 12.1121C18.3216 11.9459 17.938 11.8536 17.5263 11.8536H8.44967H8.4216L8.30931 8.05012Z" fill="#008BD2"/>
<path fill-rule="evenodd" clip-rule="evenodd" d="M105.635 9.62865H115.151L115.17 6.90527H105.653L105.635 9.62865Z" fill="#134094"/>
<path fill-rule="evenodd" clip-rule="evenodd" d="M54.2818 8.67788L58.0622 13.0814H61.3279L57.5475 8.67788C58.8388 8.67788 59.7933 8.47478 60.4202 8.06859C61.0472 7.66239 61.3559 6.96077 61.3559 5.96374V4.66206C61.3466 4.15431 61.253 3.70195 61.0659 3.32345C60.8787 2.94495 60.6167 2.63107 60.2799 2.38181C59.9523 2.13255 59.55 1.94791 59.0821 1.81867C58.6143 1.69866 58.1183 1.63403 57.5849 1.63403H42.5384V4.66206H58.2493V5.96374H42.529L42.5009 13.0814H45.4953L45.5046 8.67788H54.2818V8.67788ZM82.2883 9.97957H66.4557V8.67788H82.2883L82.307 5.96374H63.4894L63.4801 10.2288C63.4707 11.0135 63.8356 11.6874 64.5655 12.2506C65.2954 12.8045 66.1843 13.0814 67.2323 13.0814H82.2883V9.97957ZM63.4894 4.66206H82.307V1.63403H67.2604C66.2124 1.63403 65.3235 1.92022 64.5936 2.48336C63.845 3.03726 63.4707 3.70195 63.4801 4.48665L63.4894 4.66206ZM84.4311 6.04683H87.4254L87.4067 13.0907H84.4124L84.4311 6.04683ZM100.245 13.0814H103.239L103.267 1.63403H99.0005L93.9101 9.54567L88.5483 1.63403H84.4405V4.66206H87.4722L92.8714 13.0814H94.8645L100.273 4.66206L100.245 13.0814ZM136.168 9.97957H122.852C122.497 9.97957 122.16 9.93341 121.851 9.85032C121.542 9.76723 121.28 9.64722 121.056 9.50874C120.831 9.36104 120.663 9.19486 120.532 9.01023C120.401 8.81636 120.344 8.62249 120.344 8.41016L120.363 6.20377C120.382 5.99143 120.457 5.79757 120.588 5.6037C120.719 5.40983 120.897 5.25289 121.121 5.11442C121.346 4.97594 121.608 4.86516 121.907 4.7913C122.207 4.70822 122.534 4.67129 122.89 4.67129H136.186V1.64326H121.131C120.082 1.64326 119.194 1.92945 118.464 2.49259C117.715 3.0465 117.341 3.71118 117.35 4.49589L117.36 10.2381C117.35 11.0228 117.715 11.6967 118.445 12.2598C119.175 12.8137 120.064 13.0907 121.112 13.0907H136.168V9.97957ZM138.311 10.2288C138.301 11.0135 138.666 11.6874 139.396 12.2506C140.126 12.8045 141.015 13.0814 142.063 13.0814H153.348C154.386 13.0814 155.275 12.8045 156.024 12.2506C156.763 11.6782 157.128 10.9951 157.128 10.2288V4.50512C157.128 3.72042 156.754 3.0465 156.033 2.50182C155.303 1.92022 154.424 1.63403 153.366 1.63403H142.082C141.034 1.63403 140.145 1.92022 139.415 2.48336C138.666 3.03726 138.292 3.70195 138.301 4.48665L138.311 10.2288ZM154.153 8.364C154.162 8.77943 153.9 9.16717 153.366 9.50874C152.861 9.82263 152.262 9.97957 151.551 9.97957H143.794C143.438 9.97957 143.102 9.93341 142.793 9.85032C142.484 9.76723 142.222 9.64722 141.997 9.50874C141.773 9.36104 141.604 9.19486 141.473 9.01023C141.342 8.81636 141.286 8.62249 141.286 8.41016L141.305 6.20377C141.324 5.99143 141.398 5.79757 141.529 5.6037C141.66 5.40983 141.838 5.25289 142.063 5.11442C142.287 4.97594 142.549 4.86516 142.849 4.7913C143.148 4.70822 143.476 4.67129 143.831 4.67129H151.57C152.29 4.67129 152.871 4.819 153.329 5.12365C153.788 5.4283 154.059 5.76987 154.143 6.16684L154.153 8.364ZM178.07 9.97957H164.754C164.399 9.97957 164.062 9.93341 163.753 9.85032C163.444 9.76723 163.182 9.64722 162.958 9.50874C162.733 9.36104 162.565 9.19486 162.434 9.01023C162.303 8.81636 162.247 8.62249 162.247 8.41016L162.265 1.64326H159.271L159.262 10.2381C159.252 11.0228 159.617 11.6967 160.347 12.2598C161.077 12.8137 161.966 13.0907 163.014 13.0907H178.07V9.97957ZM180.213 10.2288C180.203 11.0135 180.568 11.6874 181.298 12.2506C182.028 12.8045 182.917 13.0814 183.965 13.0814H195.25C196.289 13.0814 197.177 12.8045 197.926 12.2506C198.665 11.6782 199.03 10.9951 199.03 10.2288V4.50512C199.03 3.72042 198.656 3.0465 197.935 2.50182C197.206 1.92022 196.326 1.63403 195.269 1.63403H183.984C182.936 1.63403 182.047 1.92022 181.317 2.48336C180.568 3.03726 180.194 3.70195 180.203 4.48665L180.213 10.2288ZM196.064 8.364C196.073 8.77943 195.811 9.16717 195.278 9.50874C194.773 9.82263 194.174 9.97957 193.463 9.97957H185.705C185.35 9.97957 185.013 9.93341 184.704 9.85032C184.395 9.76723 184.133 9.64722 183.909 9.50874C183.684 9.36104 183.516 9.19486 183.385 9.01023C183.254 8.81636 183.198 8.62249 183.198 8.41016L183.216 6.20377C183.235 5.99143 183.31 5.79757 183.441 5.6037C183.572 5.40983 183.75 5.25289 183.974 5.11442C184.199 4.97594 184.461 4.86516 184.76 4.7913C185.06 4.70822 185.387 4.67129 185.743 4.67129H193.481C194.202 4.67129 194.782 4.819 195.24 5.12365C195.699 5.4283 195.97 5.76987 196.055 6.16684L196.064 8.364ZM212.926 8.67788L216.706 13.0814H219.972L216.192 8.67788C217.483 8.67788 218.437 8.47478 219.064 8.06859C219.691 7.66239 220 6.96077 220 5.96374V4.66206C220 4.15431 219.897 3.71118 219.71 3.32345C219.523 2.94495 219.261 2.63107 218.924 2.38181C218.587 2.13255 218.194 1.94791 217.726 1.81867C217.258 1.69866 216.762 1.63403 216.229 1.63403H201.182V4.66206H216.893V5.96374H201.182L201.154 13.0814H204.149L204.158 8.67788H212.926Z" fill="#134094"/>
<path fill-rule="evenodd" clip-rule="evenodd" d="M42.5105 27.8615V21.9347H44.7656C45.4393 21.9347 45.9633 22.0732 46.347 22.3409C46.7306 22.6086 46.9178 23.0148 46.9178 23.5503C46.9178 23.9011 46.7961 24.1965 46.5622 24.455C46.3189 24.7135 46.0008 24.8612 45.5797 24.9166V24.9258C45.9727 24.9627 46.2815 25.1012 46.5061 25.3412C46.7306 25.5905 46.8523 25.8951 46.8523 26.2644C46.8523 26.4398 46.8523 26.5875 46.8616 26.7168C46.8616 26.846 46.871 26.966 46.8897 27.0584C46.8991 27.1507 46.9084 27.2338 46.9178 27.2891C46.9271 27.3538 46.9365 27.4092 46.9646 27.4553C46.9926 27.5015 47.002 27.5384 47.0113 27.5569C47.0207 27.5753 47.0394 27.603 47.0675 27.64C47.0956 27.6769 47.1143 27.7046 47.1143 27.7138V27.8431H46.2815C46.1973 27.64 46.1411 27.4461 46.1037 27.243C46.0663 27.0399 46.0475 26.7814 46.0475 26.4675C46.0475 26.0705 45.9353 25.7659 45.7107 25.5536C45.4861 25.3412 45.1492 25.2397 44.7001 25.2397H43.3526V27.8523H42.5105V27.8615ZM43.3339 24.6581H44.7749C44.934 24.6581 45.0837 24.6396 45.2241 24.6119C45.3645 24.575 45.5048 24.5196 45.6358 24.4458C45.7668 24.3719 45.8698 24.2611 45.954 24.1042C46.0288 23.9565 46.0756 23.7718 46.0756 23.5687C46.0756 23.3656 46.0382 23.1902 45.9727 23.0425C45.9072 22.904 45.8043 22.7933 45.6733 22.7194C45.5422 22.6456 45.4019 22.5902 45.2615 22.5625C45.1118 22.5348 44.9434 22.5163 44.7469 22.5163H43.3433V24.6581H43.3339ZM48.3682 27.8615V21.9347H52.083V22.5255H49.1916V24.455H51.8959V25.0458H49.1916V27.2707H52.0924V27.8615H48.3682ZM53.365 27.8615V21.9347H54.7124L56.8178 26.7906C56.9207 27.0399 57.0143 27.2522 57.0705 27.4369H57.0985C57.0798 27.0122 57.0705 26.7906 57.0705 26.7814V21.9347H57.8939V27.8615H56.5371L54.4691 23.1164C54.3475 22.8487 54.2539 22.5532 54.1884 22.2301H54.1697C54.1791 22.6271 54.1884 22.9317 54.1884 23.1348V27.8615H53.365V27.8615ZM59.2414 24.8889C59.2414 24.6673 59.2507 24.4735 59.2601 24.2888C59.2694 24.1042 59.2975 23.9011 59.3443 23.6887C59.3911 23.4764 59.4472 23.2826 59.5221 23.1071C59.5969 22.9317 59.6905 22.7656 59.8122 22.5994C59.9338 22.4332 60.0835 22.2948 60.252 22.184C60.4204 22.0732 60.6263 21.9809 60.8695 21.9162C61.1128 21.8516 61.3842 21.8147 61.6836 21.8147C61.9176 21.8147 62.1421 21.8332 62.3386 21.8793C62.5445 21.9255 62.7223 21.9809 62.872 22.0455C63.0217 22.1193 63.1621 22.2024 63.2837 22.3132C63.4054 22.4148 63.5177 22.5348 63.6019 22.6456C63.6861 22.7656 63.7609 22.8948 63.8265 23.0425C63.892 23.1902 63.9387 23.3379 63.9855 23.4764C64.023 23.6241 64.051 23.7718 64.0791 23.9472C64.1072 24.1134 64.1165 24.2704 64.1259 24.4181C64.1352 24.5658 64.1352 24.7227 64.1352 24.8797C64.1352 25.1381 64.1259 25.3689 64.1165 25.572C64.0978 25.7751 64.0697 25.9875 64.0323 26.209C63.9949 26.4306 63.9294 26.6245 63.8545 26.7906C63.7797 26.9568 63.6767 27.123 63.5551 27.2707C63.4334 27.4276 63.2837 27.5569 63.1153 27.6492C62.9469 27.7507 62.741 27.8338 62.4977 27.8892C62.2544 27.9446 61.9831 27.9723 61.6836 27.9723C61.3842 27.9723 61.1128 27.9446 60.8695 27.8892C60.6263 27.8338 60.4204 27.7507 60.252 27.6492C60.0835 27.5476 59.9432 27.4184 59.8122 27.2707C59.6905 27.1137 59.5876 26.9568 59.5221 26.7906C59.4472 26.6245 59.3911 26.4306 59.3443 26.209C59.2975 25.9875 59.2694 25.7751 59.2601 25.572C59.2414 25.3782 59.2414 25.1474 59.2414 24.8889ZM60.0929 24.7781C60.0929 25.1474 60.1022 25.4613 60.1303 25.7197C60.149 25.9782 60.1958 26.2183 60.2613 26.4398C60.3268 26.6706 60.4204 26.846 60.5327 26.9753C60.645 27.1045 60.804 27.2153 60.9912 27.2891C61.1783 27.363 61.4123 27.3999 61.6836 27.3999C61.9082 27.3999 62.1047 27.3722 62.2731 27.3261C62.4416 27.2799 62.5819 27.1968 62.7036 27.0953C62.8159 26.9937 62.9188 26.8737 62.9936 26.7352C63.0685 26.5968 63.134 26.4214 63.1714 26.2183C63.2089 26.0152 63.2463 25.7936 63.2557 25.572C63.2744 25.3505 63.2837 25.0827 63.2837 24.7781C63.2837 24.4919 63.2744 24.2427 63.2463 24.0211C63.2182 23.7995 63.1714 23.578 63.0966 23.3749C63.0217 23.1625 62.9282 22.9964 62.8065 22.8579C62.6849 22.7194 62.5351 22.6086 62.3386 22.5255C62.1421 22.4425 61.9269 22.4055 61.6649 22.4055C61.4216 22.4055 61.197 22.4425 61.0193 22.5255C60.8321 22.6086 60.6824 22.7194 60.5701 22.8579C60.4578 22.9964 60.3642 23.1625 60.2894 23.3749C60.2145 23.578 60.1677 23.7995 60.1397 24.0211C60.1116 24.2519 60.0929 24.5011 60.0929 24.7781ZM64.8183 21.9347H65.726L67.4384 27.3815H67.4571L69.1882 21.9347H70.0959L67.953 27.8615H66.9331L64.8183 21.9347ZM70.9942 27.8615V21.9347H71.8176V27.8615H70.9942ZM73.3616 27.8615V21.9347H77.0764V22.5255H74.185V24.455H76.8893V25.0458H74.185V27.2707H77.0858V27.8615H73.3616ZM78.3584 27.8615V21.9347H80.6135C81.2872 21.9347 81.8112 22.0732 82.1949 22.3409C82.5785 22.6086 82.7657 23.0148 82.7657 23.5503C82.7657 23.9011 82.644 24.1965 82.4101 24.455C82.1668 24.7135 81.8486 24.8612 81.4276 24.9166V24.9258C81.8206 24.9627 82.1294 25.1012 82.3539 25.3412C82.5785 25.5905 82.7002 25.8951 82.7002 26.2644C82.7002 26.4398 82.7002 26.5875 82.7095 26.7168C82.7095 26.846 82.7189 26.966 82.7376 27.0584C82.747 27.1507 82.7563 27.2338 82.7657 27.2891C82.775 27.3538 82.7844 27.4092 82.8125 27.4553C82.8312 27.5107 82.8499 27.5384 82.8592 27.5569C82.8686 27.5753 82.8873 27.603 82.9154 27.64C82.9435 27.6769 82.9622 27.7046 82.9622 27.7138V27.8431H82.1294C82.0452 27.64 81.989 27.4461 81.9516 27.243C81.9142 27.0399 81.8954 26.7814 81.8954 26.4675C81.8954 26.0705 81.7832 25.7659 81.5586 25.5536C81.334 25.3412 80.9971 25.2397 80.548 25.2397H79.2005V27.8523H78.3584V27.8615ZM79.1818 24.6581H80.6228C80.7819 24.6581 80.9316 24.6396 81.072 24.6119C81.2124 24.575 81.3527 24.5196 81.4837 24.4458C81.6147 24.3719 81.7176 24.2611 81.8019 24.1042C81.8767 23.9565 81.9235 23.7718 81.9235 23.5687C81.9235 23.3656 81.8861 23.1902 81.8206 23.0425C81.7551 22.904 81.6521 22.7933 81.5211 22.7194C81.3901 22.6456 81.2591 22.5902 81.1094 22.5625C80.9597 22.5348 80.7913 22.5163 80.5948 22.5163H79.1912V24.6581H79.1818ZM84.2161 26.4398V21.9347H85.0395V26.1998C85.0395 26.2829 85.0395 26.3567 85.0489 26.4121C85.0582 26.4767 85.0676 26.5506 85.0863 26.6337C85.105 26.7168 85.1424 26.7999 85.1705 26.8645C85.2079 26.9291 85.2641 27.003 85.3296 27.0676C85.4044 27.1414 85.4886 27.1968 85.5822 27.243C85.6758 27.2891 85.8068 27.3261 85.9472 27.3538C86.0969 27.3815 86.2559 27.3999 86.4431 27.3999C86.6957 27.3999 86.911 27.3722 87.0888 27.3168C87.2665 27.2614 87.4069 27.1968 87.5005 27.1137C87.594 27.0307 87.6689 26.9383 87.725 26.8091C87.7812 26.6891 87.8093 26.5875 87.8186 26.4952C87.828 26.4029 87.8373 26.3013 87.8373 26.1906V21.9255H88.6608V26.4306C88.6608 26.9476 88.4643 27.3353 88.0713 27.603C87.6783 27.8707 87.1355 28 86.4337 28C85.7413 28 85.1892 27.8707 84.7962 27.603C84.4219 27.3353 84.2161 26.9476 84.2161 26.4398ZM90.2235 27.8615V21.9347H91.5709L93.6763 26.7906C93.7792 27.0399 93.8728 27.2522 93.9289 27.4369H93.957C93.9383 27.0122 93.9289 26.7906 93.9289 26.7814V21.9347H94.7524V27.8615H93.3956L91.3276 23.1164C91.206 22.8487 91.1124 22.5532 91.0469 22.2301H91.0282C91.0375 22.6271 91.0469 22.9317 91.0469 23.1348V27.8615H90.2235V27.8615ZM96.0905 24.9904C96.0905 24.7596 96.0998 24.5473 96.1092 24.3534C96.1279 24.1596 96.156 23.9472 96.2028 23.7257C96.2496 23.5041 96.3057 23.301 96.3806 23.1256C96.4554 22.9502 96.5584 22.7748 96.68 22.6086C96.811 22.4425 96.9607 22.304 97.1292 22.184C97.2976 22.0732 97.5128 21.9809 97.7561 21.9162C97.9994 21.8516 98.2801 21.8147 98.5795 21.8147C99.272 21.8147 99.796 21.9716 100.161 22.2948C100.526 22.6179 100.722 23.061 100.741 23.6426H99.9176C99.9176 23.2641 99.8053 22.9594 99.5901 22.7379C99.3656 22.5163 99.0287 22.4055 98.5795 22.4055C98.3737 22.4055 98.1865 22.4332 98.0275 22.4794C97.8684 22.5255 97.728 22.5902 97.6157 22.6733C97.5034 22.7563 97.4005 22.8579 97.3163 22.9871C97.2321 23.1164 97.1666 23.2549 97.1198 23.3841C97.073 23.5226 97.0356 23.6795 97.0075 23.8642C96.9794 24.0488 96.9607 24.2242 96.9514 24.3811C96.942 24.5473 96.942 24.7319 96.942 24.935C96.942 25.212 96.9514 25.4428 96.9607 25.6459C96.9701 25.8398 96.9982 26.0429 97.0356 26.2367C97.0637 26.4398 97.1198 26.5968 97.1853 26.726C97.2508 26.8553 97.335 26.9753 97.4379 27.0768C97.5409 27.1784 97.6719 27.2614 97.831 27.3076C97.99 27.3538 98.1678 27.3815 98.3737 27.3815C98.5889 27.3815 98.776 27.363 98.9445 27.3168C99.1129 27.2707 99.2533 27.2153 99.3656 27.1507C99.4778 27.086 99.5714 26.9937 99.6556 26.8829C99.7398 26.7722 99.796 26.6614 99.8428 26.5598C99.8896 26.4583 99.927 26.329 99.9457 26.1813C99.9738 26.0336 99.9831 25.9044 99.9925 25.7844C100.002 25.6644 100.002 25.5351 100.002 25.3782H98.3362V24.7873H100.825V27.8338H100.189V26.9568H100.17C100.067 27.2799 99.8521 27.5384 99.534 27.7138C99.2158 27.8892 98.8415 27.9815 98.4111 27.9815C98.1117 27.9815 97.8403 27.9538 97.6064 27.8892C97.3631 27.8246 97.1666 27.7507 97.0075 27.6492C96.8484 27.5476 96.7081 27.4184 96.5958 27.2615C96.4835 27.1045 96.3899 26.9476 96.3244 26.7814C96.2589 26.6245 96.2121 26.4306 96.1747 26.209C96.1373 25.9875 96.1186 25.7844 96.0998 25.609C96.0998 25.452 96.0905 25.2397 96.0905 24.9904Z" fill="#134094"/>
<path fill-rule="evenodd" clip-rule="evenodd" d="M107.235 27.8616V21.9348H107.871V27.8616H107.235ZM159.991 27.8616V21.9348H160.628V27.8616H159.991Z" fill="#C5C6C6"/>
<path fill-rule="evenodd" clip-rule="evenodd" d="M114.515 27.8616V21.9348H118.23V22.5256H115.338V24.4551H118.043V25.0459H115.338V27.2708H118.239V27.8616H114.515ZM119.502 27.8616V21.9348H122.983V22.5256H120.335V24.4551H122.805V25.0459H120.335V27.8616H119.502ZM123.91 27.8616V21.9348H127.391V22.5256H124.742V24.4551H127.213V25.0459H124.742V27.8616H123.91ZM128.317 27.8616V21.9348H129.14V27.8616H128.317ZM130.404 27.8616V27.2892L133.913 22.5256H130.497V21.9348H134.764V22.5072L131.255 27.2708H134.82V27.8616H130.404ZM136.074 27.8616V21.9348H136.898V27.8616H136.074ZM138.442 27.8616V21.9348H142.156V22.5256H139.265V24.4551H141.969V25.0459H139.265V27.2708H142.166V27.8616H138.442ZM143.438 27.8616V21.9348H144.786L146.891 26.7907C146.994 27.04 147.088 27.2523 147.144 27.437H147.172C147.153 27.0123 147.144 26.7907 147.144 26.7815V21.9348H147.967V27.8616H146.61L144.543 23.1165C144.421 22.8488 144.327 22.5533 144.262 22.2302H144.243C144.252 22.6272 144.262 22.9318 144.262 23.1349V27.8616H143.438V27.8616ZM149.231 27.8616V27.2892L152.74 22.5256H149.324V21.9348H153.591V22.5072L150.082 27.2708H153.647V27.8616H149.231Z" fill="#008BD2"/>
<path fill-rule="evenodd" clip-rule="evenodd" d="M167.262 27.8615V21.9347H168.703L170.172 26.5598C170.238 26.7906 170.285 27.086 170.322 27.4369H170.341C170.35 27.3999 170.359 27.3261 170.369 27.2245C170.378 27.123 170.397 27.0491 170.406 26.9937C170.416 26.9383 170.434 26.8737 170.462 26.7906C170.49 26.7075 170.518 26.6245 170.537 26.5414L172.016 21.9255H173.466V27.8523H172.643L172.633 22.9687C172.633 22.8856 172.643 22.7563 172.643 22.5809C172.652 22.4055 172.661 22.2855 172.661 22.2117H172.633C172.596 22.3409 172.549 22.4886 172.493 22.6548C172.437 22.821 172.399 22.941 172.381 23.0056L170.837 27.8431H169.863L168.31 22.941C168.301 22.9133 168.273 22.8117 168.217 22.6456C168.17 22.4794 168.123 22.3409 168.076 22.2117H168.057C168.057 22.3224 168.067 22.4609 168.076 22.6179C168.086 22.7748 168.095 22.8948 168.095 22.9779V27.8431H167.262V27.8615ZM174.813 24.8889C174.813 24.6673 174.823 24.4735 174.832 24.2888C174.842 24.1042 174.87 23.9011 174.916 23.6887C174.963 23.4764 175.019 23.2826 175.094 23.1071C175.169 22.9317 175.263 22.7656 175.384 22.5994C175.506 22.4332 175.656 22.2948 175.824 22.184C175.992 22.0732 176.198 21.9809 176.442 21.9162C176.685 21.8516 176.956 21.8147 177.256 21.8147C177.49 21.8147 177.714 21.8332 177.911 21.8793C178.117 21.9255 178.294 21.9809 178.444 22.0455C178.594 22.1193 178.734 22.2024 178.856 22.3132C178.977 22.4148 179.09 22.5348 179.174 22.6456C179.258 22.7656 179.333 22.8948 179.399 23.0425C179.464 23.1902 179.511 23.3379 179.558 23.4764C179.595 23.6241 179.623 23.7718 179.651 23.9472C179.679 24.1134 179.689 24.2704 179.698 24.4181C179.707 24.5658 179.707 24.7227 179.707 24.8797C179.707 25.1381 179.698 25.3689 179.689 25.572C179.67 25.7751 179.642 25.9875 179.604 26.209C179.567 26.4306 179.501 26.6245 179.427 26.7906C179.352 26.9568 179.249 27.123 179.127 27.2707C179.006 27.4276 178.856 27.5569 178.687 27.6492C178.519 27.7507 178.313 27.8338 178.07 27.8892C177.827 27.9446 177.555 27.9723 177.256 27.9723C176.956 27.9723 176.685 27.9446 176.442 27.8892C176.198 27.8338 175.992 27.7507 175.824 27.6492C175.656 27.5476 175.515 27.4184 175.384 27.2707C175.263 27.1137 175.16 26.9568 175.094 26.7906C175.019 26.6245 174.963 26.4306 174.916 26.209C174.87 25.9875 174.842 25.7751 174.832 25.572C174.813 25.3782 174.813 25.1474 174.813 24.8889ZM175.665 24.7781C175.665 25.1474 175.674 25.4613 175.702 25.7197C175.721 25.9782 175.768 26.2183 175.833 26.4398C175.899 26.6706 175.992 26.846 176.105 26.9753C176.217 27.1045 176.376 27.2153 176.563 27.2891C176.75 27.363 176.984 27.3999 177.256 27.3999C177.48 27.3999 177.677 27.3722 177.845 27.3261C178.014 27.2799 178.154 27.1968 178.276 27.0953C178.388 26.9937 178.491 26.8737 178.566 26.7352C178.641 26.5968 178.706 26.4214 178.744 26.2183C178.781 26.0152 178.818 25.7936 178.828 25.572C178.846 25.3505 178.856 25.0827 178.856 24.7781C178.856 24.4919 178.846 24.2427 178.818 24.0211C178.79 23.7995 178.744 23.578 178.669 23.3749C178.594 23.1625 178.5 22.9964 178.379 22.8579C178.257 22.7194 178.107 22.6086 177.911 22.5255C177.714 22.4425 177.49 22.4055 177.237 22.4055C176.994 22.4055 176.769 22.4425 176.591 22.5255C176.404 22.6086 176.255 22.7194 176.142 22.8579C176.03 22.9964 175.936 23.1625 175.861 23.3749C175.787 23.578 175.74 23.7995 175.712 24.0211C175.684 24.2519 175.665 24.5011 175.665 24.7781ZM181.055 27.8615V21.9347H183.095C183.422 21.9347 183.712 21.9624 183.965 22.027C184.227 22.0917 184.442 22.1655 184.62 22.2671C184.798 22.3686 184.957 22.4886 185.088 22.6456C185.219 22.8025 185.322 22.9594 185.397 23.1164C185.471 23.2733 185.528 23.458 185.574 23.6703C185.621 23.8826 185.649 24.0857 185.659 24.2704C185.668 24.455 185.677 24.6673 185.677 24.8981C185.677 26.8737 184.863 27.8615 183.244 27.8615H181.055V27.8615ZM181.878 27.2707H183.207C183.806 27.2707 184.227 27.0768 184.461 26.6983C184.704 26.3198 184.816 25.6828 184.816 24.7781C184.816 24.4919 184.807 24.2334 184.779 24.0211C184.751 23.7995 184.704 23.5964 184.629 23.4026C184.554 23.2087 184.461 23.0518 184.339 22.9225C184.218 22.8025 184.068 22.7009 183.871 22.6271C183.684 22.5532 183.46 22.5163 183.198 22.5163H181.869V27.2707H181.878ZM187.015 27.8615V21.9347H190.73V22.5255H187.839V24.455H190.543V25.0458H187.839V27.2707H190.74V27.8615H187.015ZM192.012 27.8615V21.9347H194.267C194.941 21.9347 195.465 22.0732 195.849 22.3409C196.232 22.6086 196.42 23.0148 196.42 23.5503C196.42 23.9011 196.298 24.1965 196.064 24.455C195.821 24.7135 195.503 24.8612 195.081 24.9166V24.9258C195.474 24.9627 195.783 25.1012 196.008 25.3412C196.232 25.5905 196.354 25.8951 196.354 26.2644C196.354 26.4398 196.354 26.5875 196.363 26.7168C196.363 26.846 196.373 26.966 196.391 27.0583C196.401 27.1507 196.41 27.2338 196.42 27.2891C196.429 27.3538 196.438 27.4092 196.466 27.4553C196.494 27.5015 196.504 27.5384 196.513 27.5569C196.522 27.5753 196.541 27.603 196.569 27.64C196.597 27.6769 196.616 27.7046 196.616 27.7138V27.8431H195.783C195.699 27.64 195.643 27.4461 195.605 27.243C195.568 27.0399 195.549 26.7814 195.549 26.4675C195.549 26.0705 195.437 25.7659 195.212 25.5536C194.988 25.3412 194.651 25.2397 194.202 25.2397H192.854V27.8523H192.012V27.8615ZM192.836 24.6581H194.277C194.436 24.6581 194.586 24.6396 194.726 24.6119C194.866 24.575 195.007 24.5196 195.138 24.4458C195.269 24.3719 195.372 24.2611 195.456 24.1042C195.531 23.9565 195.577 23.7718 195.577 23.5687C195.577 23.3656 195.54 23.1902 195.474 23.0425C195.409 22.904 195.306 22.7933 195.175 22.7194C195.044 22.6456 194.913 22.5902 194.763 22.5625C194.614 22.5348 194.445 22.5163 194.249 22.5163H192.845V24.6581H192.836ZM197.87 27.8615V21.9347H199.217L201.323 26.7906C201.426 27.0399 201.519 27.2522 201.575 27.4369H201.603C201.585 27.0122 201.575 26.7906 201.575 26.7814V21.9347H202.399V27.8615H201.042L198.974 23.1164C198.852 22.8487 198.759 22.5532 198.693 22.2301H198.675C198.684 22.6271 198.693 22.9317 198.693 23.1348V27.8615H197.87V27.8615ZM203.952 27.8615V21.9347H204.776V27.8615H203.952ZM205.711 22.5255V21.9347H210.371V22.5255H208.462V27.8615H207.639V22.5255H205.711ZM210.212 27.8615H211.12L211.663 26.1536H214.002L214.591 27.8615H215.499L213.412 21.9347H212.318L210.212 27.8615ZM211.859 25.5628L212.842 22.4055H212.86L213.824 25.5628H211.859V25.5628ZM215.349 22.5255V21.9347H220.009V22.5255H218.1V27.8615H217.277V22.5255H215.349Z" fill="#9C9D9D"/>
<path fill-rule="evenodd" clip-rule="evenodd" d="M211.897 20.5869C212.187 20.5869 212.43 20.7808 212.43 21.0116C212.43 21.2424 212.187 21.4362 211.897 21.4362C211.606 21.4362 211.363 21.2424 211.363 21.0116C211.363 20.7808 211.597 20.5869 211.897 20.5869Z" fill="#7E7E7D"/>
<path fill-rule="evenodd" clip-rule="evenodd" d="M213.59 20.5869C213.88 20.5869 214.124 20.7808 214.124 21.0116C214.124 21.2424 213.89 21.4362 213.59 21.4362C213.3 21.4362 213.057 21.2424 213.057 21.0116C213.057 20.7808 213.291 20.5869 213.59 20.5869Z" fill="#7E7E7D"/>
</svg>
